<svg xmlns="http://www.w3.org/2000/svg" width="360" height="300" viewBox="0 0 360 300" role="img" aria-label="Top Languages">
<rect width="360" height="300" rx="12" fill="#0d1117" stroke="#30363d"/>
<text x="24" y="36" fill="#70a5fd" font-family="Segoe UI, Arial, sans-serif" font-size="18" font-weight="700">Top Languages</text>
<text x="24" y="72" fill="#c9d1d9" font-family="Segoe UI, Arial, sans-serif" font-size="13" font-weight="600">JavaScript</text>
<text x="330" y="72" fill="#8b949e" font-family="Segoe UI, Arial, sans-serif" font-size="12" text-anchor="end">87.5%</text>
<rect x="24" y="82" width="230" height="8" rx="4" fill="#30363d"/>
<rect x="24" y="82" width="230" height="8" rx="4" fill="#f75c3c"/>
<text x="24" y="102" fill="#c9d1d9" font-family="Segoe UI, Arial, sans-serif" font-size="13" font-weight="600">CSS</text>
<text x="330" y="102" fill="#8b949e" font-family="Segoe UI, Arial, sans-serif" font-size="12" text-anchor="end">3.4%</text>
<rect x="24" y="112" width="230" height="8" rx="4" fill="#30363d"/>
<rect x="24" y="112" width="8" height="8" rx="4" fill="#70a5fd"/>
<text x="24" y="132" fill="#c9d1d9" font-family="Segoe UI, Arial, sans-serif" font-size="13" font-weight="600">TypeScript</text>
<text x="330" y="132" fill="#8b949e" font-family="Segoe UI, Arial, sans-serif" font-size="12" text-anchor="end">2.7%</text>
<rect x="24" y="142" width="230" height="8" rx="4" fill="#30363d"/>
<rect x="24" y="142" width="7" height="8" rx="4" fill="#38bdae"/>
<text x="24" y="162" fill="#c9d1d9" font-family="Segoe UI, Arial, sans-serif" font-size="13" font-weight="600">HTML</text>
<text x="330" y="162" fill="#8b949e" font-family="Segoe UI, Arial, sans-serif" font-size="12" text-anchor="end">1.8%</text>
<rect x="24" y="172" width="230" height="8" rx="4" fill="#30363d"/>
<rect x="24" y="172" width="4" height="8" rx="4" fill="#bf91f3"/>
<text x="24" y="192" fill="#c9d1d9" font-family="Segoe UI, Arial, sans-serif" font-size="13" font-weight="600">Dart</text>
<text x="330" y="192" fill="#8b949e" font-family="Segoe UI, Arial, sans-serif" font-size="12" text-anchor="end">1.2%</text>
<rect x="24" y="202" width="230" height="8" rx="4" fill="#30363d"/>
<rect x="24" y="202" width="4" height="8" rx="4" fill="#f1c40f"/>
<text x="24" y="222" fill="#c9d1d9" font-family="Segoe UI, Arial, sans-serif" font-size="13" font-weight="600">C++</text>
<text x="330" y="222" fill="#8b949e" font-family="Segoe UI, Arial, sans-serif" font-size="12" text-anchor="end">1.1%</text>
<rect x="24" y="232" width="230" height="8" rx="4" fill="#30363d"/>
<rect x="24" y="232" width="4" height="8" rx="4" fill="#ff8c42"/>
<text x="24" y="252" fill="#c9d1d9" font-family="Segoe UI, Arial, sans-serif" font-size="13" font-weight="600">Python</text>
<text x="330" y="252" fill="#8b949e" font-family="Segoe UI, Arial, sans-serif" font-size="12" text-anchor="end">1.0%</text>
<rect x="24" y="262" width="230" height="8" rx="4" fill="#30363d"/>
<rect x="24" y="262" width="4" height="8" rx="4" fill="#6a9fb5"/>
</svg>
