<svg xmlns="http://www.w3.org/2000/svg" width="930" height="250" viewBox="0 0 930 250" role="img" aria-label="GitHub Trophy Wall">
<rect width="930" height="250" rx="12" fill="#0d1117" stroke="#30363d"/>
<text x="24" y="36" fill="#70a5fd" font-family="Segoe UI, Arial, sans-serif" font-size="18" font-weight="700">GitHub Trophy Wall</text>
<text x="24" y="58" fill="#8b949e" font-family="Segoe UI, Arial, sans-serif" font-size="12">Generated from local GitHub API data</text>
<rect x="32" y="78" width="135" height="132" rx="14" fill="#161b22" stroke="#30363d"/>
<circle cx="90" cy="118" r="34" fill="#101722" stroke="#f1c40f" stroke-width="3"/>
<path d="M 72 104 H 108 V 124 C 108 136 72 136 72 124 Z" fill="#f1c40f"/>
<path d="M 72 109 H 57 C 56 126 66 130 72 130" fill="none" stroke="#f1c40f" stroke-width="4" stroke-linecap="round"/>
<path d="M 108 109 H 123 C 124 126 114 130 108 130" fill="none" stroke="#f1c40f" stroke-width="4" stroke-linecap="round"/>
<rect x="82" y="136" width="16" height="14" rx="3" fill="#f1c40f"/>
<rect x="66" y="150" width="48" height="8" rx="4" fill="#f1c40f"/>
<text x="90" y="174" fill="#c9d1d9" font-family="Segoe UI, Arial, sans-serif" font-size="24" font-weight="800" text-anchor="middle">15</text>
<text x="90" y="193" fill="#70a5fd" font-family="Segoe UI, Arial, sans-serif" font-size="11" font-weight="700" text-anchor="middle">Archive</text>
<text x="90" y="206" fill="#8b949e" font-family="Segoe UI, Arial, sans-serif" font-size="10" text-anchor="middle">Repositories</text>
<rect x="180" y="78" width="135" height="132" rx="14" fill="#161b22" stroke="#30363d"/>
<circle cx="238" cy="118" r="34" fill="#101722" stroke="#70a5fd" stroke-width="3"/>
<path d="M 220 104 H 256 V 124 C 256 136 220 136 220 124 Z" fill="#70a5fd"/>
<path d="M 220 109 H 205 C 204 126 214 130 220 130" fill="none" stroke="#70a5fd" stroke-width="4" stroke-linecap="round"/>
<path d="M 256 109 H 271 C 272 126 262 130 256 130" fill="none" stroke="#70a5fd" stroke-width="4" stroke-linecap="round"/>
<rect x="230" y="136" width="16" height="14" rx="3" fill="#70a5fd"/>
<rect x="214" y="150" width="48" height="8" rx="4" fill="#70a5fd"/>
<text x="238" y="174" fill="#c9d1d9" font-family="Segoe UI, Arial, sans-serif" font-size="24" font-weight="800" text-anchor="middle">5</text>
<text x="238" y="193" fill="#70a5fd" font-family="Segoe UI, Arial, sans-serif" font-size="11" font-weight="700" text-anchor="middle">Stargazer</text>
<text x="238" y="206" fill="#8b949e" font-family="Segoe UI, Arial, sans-serif" font-size="10" text-anchor="middle">Stars</text>
<rect x="328" y="78" width="135" height="132" rx="14" fill="#161b22" stroke="#30363d"/>
<circle cx="386" cy="118" r="34" fill="#101722" stroke="#bf91f3" stroke-width="3"/>
<path d="M 368 104 H 404 V 124 C 404 136 368 136 368 124 Z" fill="#bf91f3"/>
<path d="M 368 109 H 353 C 352 126 362 130 368 130" fill="none" stroke="#bf91f3" stroke-width="4" stroke-linecap="round"/>
<path d="M 404 109 H 419 C 420 126 410 130 404 130" fill="none" stroke="#bf91f3" stroke-width="4" stroke-linecap="round"/>
<rect x="378" y="136" width="16" height="14" rx="3" fill="#bf91f3"/>
<rect x="362" y="150" width="48" height="8" rx="4" fill="#bf91f3"/>
<text x="386" y="174" fill="#c9d1d9" font-family="Segoe UI, Arial, sans-serif" font-size="24" font-weight="800" text-anchor="middle">279</text>
<text x="386" y="193" fill="#70a5fd" font-family="Segoe UI, Arial, sans-serif" font-size="11" font-weight="700" text-anchor="middle">Code Flow</text>
<text x="386" y="206" fill="#8b949e" font-family="Segoe UI, Arial, sans-serif" font-size="10" text-anchor="middle">Commits</text>
<rect x="476" y="78" width="135" height="132" rx="14" fill="#161b22" stroke="#30363d"/>
<circle cx="534" cy="118" r="34" fill="#101722" stroke="#38bdae" stroke-width="3"/>
<path d="M 516 104 H 552 V 124 C 552 136 516 136 516 124 Z" fill="#38bdae"/>
<path d="M 516 109 H 501 C 500 126 510 130 516 130" fill="none" stroke="#38bdae" stroke-width="4" stroke-linecap="round"/>
<path d="M 552 109 H 567 C 568 126 558 130 552 130" fill="none" stroke="#38bdae" stroke-width="4" stroke-linecap="round"/>
<rect x="526" y="136" width="16" height="14" rx="3" fill="#38bdae"/>
<rect x="510" y="150" width="48" height="8" rx="4" fill="#38bdae"/>
<text x="534" y="174" fill="#c9d1d9" font-family="Segoe UI, Arial, sans-serif" font-size="24" font-weight="800" text-anchor="middle">3</text>
<text x="534" y="193" fill="#70a5fd" font-family="Segoe UI, Arial, sans-serif" font-size="11" font-weight="700" text-anchor="middle">Merge Pro</text>
<text x="534" y="206" fill="#8b949e" font-family="Segoe UI, Arial, sans-serif" font-size="10" text-anchor="middle">Pull Requests</text>
<rect x="624" y="78" width="135" height="132" rx="14" fill="#161b22" stroke="#30363d"/>
<circle cx="682" cy="118" r="34" fill="#101722" stroke="#ff8c42" stroke-width="3"/>
<path d="M 664 104 H 700 V 124 C 700 136 664 136 664 124 Z" fill="#ff8c42"/>
<path d="M 664 109 H 649 C 648 126 658 130 664 130" fill="none" stroke="#ff8c42" stroke-width="4" stroke-linecap="round"/>
<path d="M 700 109 H 715 C 716 126 706 130 700 130" fill="none" stroke="#ff8c42" stroke-width="4" stroke-linecap="round"/>
<rect x="674" y="136" width="16" height="14" rx="3" fill="#ff8c42"/>
<rect x="658" y="150" width="48" height="8" rx="4" fill="#ff8c42"/>
<text x="682" y="174" fill="#c9d1d9" font-family="Segoe UI, Arial, sans-serif" font-size="24" font-weight="800" text-anchor="middle">0</text>
<text x="682" y="193" fill="#70a5fd" font-family="Segoe UI, Arial, sans-serif" font-size="11" font-weight="700" text-anchor="middle">Problem Solver</text>
<text x="682" y="206" fill="#8b949e" font-family="Segoe UI, Arial, sans-serif" font-size="10" text-anchor="middle">Issues</text>
<rect x="772" y="78" width="135" height="132" rx="14" fill="#161b22" stroke="#30363d"/>
<circle cx="830" cy="118" r="34" fill="#101722" stroke="#f778ba" stroke-width="3"/>
<path d="M 812 104 H 848 V 124 C 848 136 812 136 812 124 Z" fill="#f778ba"/>
<path d="M 812 109 H 797 C 796 126 806 130 812 130" fill="none" stroke="#f778ba" stroke-width="4" stroke-linecap="round"/>
<path d="M 848 109 H 863 C 864 126 854 130 848 130" fill="none" stroke="#f778ba" stroke-width="4" stroke-linecap="round"/>
<rect x="822" y="136" width="16" height="14" rx="3" fill="#f778ba"/>
<rect x="806" y="150" width="48" height="8" rx="4" fill="#f778ba"/>
<text x="830" y="174" fill="#c9d1d9" font-family="Segoe UI, Arial, sans-serif" font-size="24" font-weight="800" text-anchor="middle">512</text>
<text x="830" y="193" fill="#70a5fd" font-family="Segoe UI, Arial, sans-serif" font-size="11" font-weight="700" text-anchor="middle">Consistency</text>
<text x="830" y="206" fill="#8b949e" font-family="Segoe UI, Arial, sans-serif" font-size="10" text-anchor="middle">Longest Streak</text>
</svg>
